<svg xmlns="http://www.w3.org/2000/svg" xmlns:xlink="http://www.w3.org/1999/xlink" version="1.1" x="0px" y="0px" viewBox="0 0 100 125" style="enable-background:new 0 0 100 100;" xml:space="preserve"><path d="M31.9,33.2c-0.7-0.8-2.1-1-2.9-0.3l-10.8,9c-0.5,0.4-0.7,1-0.7,1.6s0.3,1.2,0.7,1.6l10.8,9  c0.4,0.3,0.8,0.5,1.3,0.5c0.6,0,1.2-0.3,1.6-0.7c0.7-0.9,0.6-2.2-0.3-2.9l-8.9-7.4l8.9-7.4C32.5,35.4,32.6,34.1,31.9,33.2z"/><path d="M67.7,42.6l-10.8-9c-0.8-0.7-2.2-0.6-2.9,0.3c-0.7,0.9-0.6,2.2,0.3,2.9l8.9,7.4l-8.9,7.4  c-0.9,0.7-1,2-0.3,2.9c0.4,0.5,1,0.7,1.6,0.7c0.5,0,1-0.2,1.3-0.5l10.8-9c0.5-0.4,0.7-1,0.7-1.6C68.4,43.5,68.2,43,67.7,42.6z"/><path d="M48.5,23.9L48.5,23.9c-1.1-0.3-2.3,0.3-2.6,1.4L34.6,61.8c-0.3,1.1,0.3,2.3,1.4,2.6c0.2,0.1,0.4,0.1,0.6,0.1  c0.9,0,1.7-0.6,2-1.5l11.4-36.6C50.2,25.4,49.6,24.2,48.5,23.9z"/><path d="M42.9,1.3c-11.2,0-21.7,4.4-29.6,12.3C5.4,21.5,1,32,1,43.2c0,11.2,4.4,21.7,12.3,29.6  c7.9,7.9,18.4,12.3,29.6,12.3c8.9,0,17.4-2.8,24.6-8l1-0.7l0.2,0.2l20.8,20.8c1,1,2.4,1.6,3.8,1.6c1.4,0,2.8-0.6,3.8-1.6  c1-1,1.6-2.4,1.6-3.8c0-1.4-0.6-2.8-1.6-3.8l-21-21l0.7-1C89,51,87.2,28.3,72.5,13.6C64.6,5.7,54.1,1.3,42.9,1.3z M67.8,68.1  c-6.6,6.6-15.5,10.3-24.9,10.3c-9.4,0-18.2-3.7-24.8-10.3C11.4,61.4,7.8,52.6,7.8,43.2S11.4,25,18.1,18.4  c6.6-6.6,15.5-10.3,24.8-10.3c9.4,0,18.2,3.7,24.9,10.3C81.5,32.1,81.5,54.4,67.8,68.1z"/><text x="0" y="115" fill="#000000" font-size="5px" font-weight="bold" font-family="'Helvetica Neue', Helvetica, Arial-Unicode, Arial, Sans-serif">Created by Gem Designs</text><text x="0" y="120" fill="#000000" font-size="5px" font-weight="bold" font-family="'Helvetica Neue', Helvetica, Arial-Unicode, Arial, Sans-serif">from the Noun Project</text></svg>